<?xml version="1.0" encoding="UTF-8" standalone="no"?>
<svg
   xmlns:dc="http://purl.org/dc/elements/1.1/"
   xmlns:cc="http://creativecommons.org/ns#"
   xmlns:rdf="http://www.w3.org/1999/02/22-rdf-syntax-ns#"
   xmlns:svg="http://www.w3.org/2000/svg"
   xmlns="http://www.w3.org/2000/svg"
   xmlns:xlink="http://www.w3.org/1999/xlink"
   xmlns:sodipodi="http://sodipodi.sourceforge.net/DTD/sodipodi-0.dtd"
   xmlns:inkscape="http://www.inkscape.org/namespaces/inkscape"
   width="500"
   height="500"
   viewBox="0 0 132.29166 132.29167"
   version="1.1"
   id="svg8"
   inkscape:version="1.0.1 (3bc2e813f5, 2020-09-07)"
   sodipodi:docname="icon-1.svg"
   inkscape:export-filename="/home/damien/dev/perso/melodie/public/icon.png"
   inkscape:export-xdpi="96"
   inkscape:export-ydpi="96">
  <defs
     id="defs2">
    <linearGradient
       inkscape:collect="always"
       id="linearGradient857">
      <stop
         style="stop-color:#fff6d5;stop-opacity:1"
         offset="0"
         id="stop853" />
      <stop
         style="stop-color:#fffefc;stop-opacity:0"
         offset="1"
         id="stop855" />
    </linearGradient>
    <linearGradient
       inkscape:collect="always"
       id="linearGradient847">
      <stop
         style="stop-color:#ffe26b;stop-opacity:1"
         offset="0"
         id="stop843" />
      <stop
         style="stop-color:#fff7d9;stop-opacity:1"
         offset="1"
         id="stop845" />
    </linearGradient>
    <linearGradient
       inkscape:collect="always"
       xlink:href="#linearGradient847"
       id="linearGradient849"
       x1="4.1013551"
       y1="29.692562"
       x2="126.53131"
       y2="107.72774"
       gradientUnits="userSpaceOnUse"
       gradientTransform="matrix(0.89999997,0,0,0.89999997,6.6145833,6.6145833)" />
    <linearGradient
       inkscape:collect="always"
       xlink:href="#linearGradient857"
       id="linearGradient851"
       x1="19.642857"
       y1="44.751522"
       x2="86.50238"
       y2="81.006836"
       gradientUnits="userSpaceOnUse"
       gradientTransform="matrix(0.89999997,0,0,0.89999997,7.2464178,6.1526484)" />
  </defs>
  <sodipodi:namedview
     id="base"
     pagecolor="#ffffff"
     bordercolor="#666666"
     borderopacity="1.0"
     inkscape:pageopacity="0.0"
     inkscape:pageshadow="2"
     inkscape:zoom="0.63427478"
     inkscape:cx="414.40698"
     inkscape:cy="356.48841"
     inkscape:document-units="mm"
     inkscape:current-layer="layer2"
     inkscape:document-rotation="0"
     showgrid="false"
     units="px"
     objecttolerance="1"
     guidetolerance="1"
     inkscape:window-width="1920"
     inkscape:window-height="1080"
     inkscape:window-x="1920"
     inkscape:window-y="-37"
     inkscape:window-maximized="1" />
  <metadata
     id="metadata5">
    <rdf:RDF>
      <cc:Work
         rdf:about="">
        <dc:format>image/svg+xml</dc:format>
        <dc:type
           rdf:resource="http://purl.org/dc/dcmitype/StillImage" />
        <dc:title />
      </cc:Work>
    </rdf:RDF>
  </metadata>
  <g
     inkscape:groupmode="layer"
     id="layer2"
     inkscape:label="Lune"
     style="display:inline">
    <circle
       style="display:inline;fill:url(#linearGradient849);fill-opacity:1;stroke:none;stroke-width:1.32291667;stroke-linecap:round;stroke-opacity:1;stroke-miterlimit:4;stroke-dasharray:none"
       id="path833"
       cx="66.145836"
       cy="66.145836"
       r="59.53125" />
    <path
       id="path836"
       style="fill:url(#linearGradient851);fill-opacity:1;stroke:none;stroke-width:4.53678;stroke-linecap:round;stroke-miterlimit:4;stroke-dasharray:none"
       d="M 66.423724,12.658015 A 52.255008,53.515036 0 0 0 14.16852,66.173305 52.255008,53.515036 0 0 0 58.695671,119.09965 49.615784,50.623519 0 0 1 34.172781,75.427642 49.615784,50.623519 0 0 1 83.788152,24.804059 49.615784,50.623519 0 0 1 104.34343,29.353238 52.255008,53.515036 0 0 0 66.423724,12.658015 Z" />
  </g>
  <g
     inkscape:label="Clef de sol"
     inkscape:groupmode="layer"
     id="layer1"
     style="display:inline">
    <path
       style="fill:#4c5c96;fill-opacity:1;stroke:#f3ffff;stroke-width:2.11667;stroke-linecap:butt;stroke-linejoin:miter;stroke-miterlimit:4;stroke-dasharray:none;stroke-opacity:1"
       d="M 55.669102,87.483823 C 52.031064,73.154873 59.884746,60.887965 68.704729,59.82478 77.524714,58.761597 85.831472,63.143746 86.191151,79.566854 86.396343,88.936049 78.745716,101.94968 72.132991,103.65692 66.178574,105.1942 52.867506,107.24104 43.933434,90.182335 30.474503,64.483877 73.641932,40.379986 73.159493,26.843422 72.677053,13.306856 68.873564,9.2915438 62.064362,15.153306 c -2.64623,2.27803 -9.575854,10.027634 -5.970007,24.725656 12.170014,49.606956 28.201991,59.894176 25.616887,77.913028 -0.988071,6.88709 -9.403377,11.31435 -15.826182,11.20673 -7.347601,-0.12308 -11.553215,-6.70306 -13.0109,-8.94718 -2.315357,-3.56448 -0.231467,-8.66825 2.196802,-9.45244 3.031005,-0.97884 6.751415,3.42083 5.67026,6.76095 -1.081157,3.34013 -6.237159,2.90966 -6.237159,2.90966 1.505473,7.84292 20.63122,11.21032 23.445383,-4.39927 C 81.353321,96.989851 60.163083,81.955592 51.748886,30.479229 50.614498,23.539269 52.243323,4.4068674 64.47549,2.5093714 74.836304,0.90216709 76.396643,17.96124 74.738165,28.699012 71.525238,49.500994 48.381343,65.265755 47.486187,83.628044 46.591033,101.99034 63.255509,105.06697 71.600455,101.72923 79.945401,98.391495 83.094265,89.906395 83.1201,81.805934 83.14593,73.705473 76.30044,62.996101 64.401532,70.613632 c -11.373614,7.281242 -6.856567,17.484577 -6.856567,17.484577 3.618051,-4.490896 9.943984,-2.949718 8.507274,1.769134 -1.218686,4.002757 -8.433133,5.296872 -10.383137,-2.38352 z"
       id="path916"
       sodipodi:nodetypes="szssszsssssszcsssszzzscss" />
    <path
       style="display:inline;fill:#4c5c96;fill-opacity:1;stroke:none;stroke-width:0.195256px;stroke-linecap:butt;stroke-linejoin:miter;stroke-opacity:1"
       d="M 56.740587,88.254307 C 53.047203,73.707359 61.020367,61.25383 69.974535,60.174471 78.928705,59.09511 87.36184,63.543929 87.726989,80.216891 87.935301,89.728627 80.168282,102.94023 73.454952,104.67345 67.409946,106.23412 53.896371,108.3121 44.826379,90.993872 31.162689,64.904446 74.986852,40.43385 74.497072,26.691343 74.007294,12.948837 70.14594,8.8724366 63.233144,14.823378 c -2.686488,2.312687 -9.721536,10.18019 -6.060831,25.101824 12.355162,50.361657 28.631044,60.805388 26.006613,79.098358 -1.003103,6.99188 -9.546438,11.48649 -16.066956,11.37724 -7.459386,-0.12496 -11.728983,-6.80505 -13.208845,-9.08329 -2.350581,-3.61873 -0.234988,-8.80015 2.230223,-9.59626 3.07712,-0.99373 6.85413,3.47287 5.756526,6.8638 -1.097605,3.39095 -6.332048,2.95394 -6.332048,2.95394 1.528376,7.96224 20.945094,11.38087 23.802073,-4.4662 C 82.815558,97.904949 61.30294,82.641971 52.760732,30.382463 51.609086,23.336922 53.262692,3.913445 65.680954,1.9870819 76.199396,0.35542584 77.783472,17.674031 76.099761,28.575163 72.837956,49.69362 49.341956,65.698222 48.433182,84.339867 47.524409,102.98151 64.442412,106.10494 72.914318,102.71643 81.38622,99.327931 84.582991,90.713734 84.609214,82.490036 c 0.02618,-8.223698 -6.92341,-19.096 -19.003343,-11.362578 -11.546649,7.392017 -6.96088,17.750582 -6.96088,17.750582 3.673095,-4.559219 10.095269,-2.994596 8.6367,1.796048 -1.237225,4.063655 -8.561432,5.377458 -10.541104,-2.419781 z"
       id="path916-7"
       sodipodi:nodetypes="szssszsssssszcsssszzzscss"
       transform="matrix(0.98501435,0,0,0.98501435,-0.22119185,0.55206371)" />
  </g>
</svg>
