<?xml version="1.0" encoding="UTF-8" standalone="no"?>
<svg
   width="128"
   height="128"
   viewBox="0 0 128 128"
   version="1.1"
   id="svg2"
   sodipodi:docname="svelte-logo.svg"
   inkscape:version="1.3.2 (091e20e, 2023-11-25)"
   xmlns:inkscape="http://www.inkscape.org/namespaces/inkscape"
   xmlns:sodipodi="http://sodipodi.sourceforge.net/DTD/sodipodi-0.dtd"
   xmlns="http://www.w3.org/2000/svg"
   xmlns:svg="http://www.w3.org/2000/svg"
   xmlns:rdf="http://www.w3.org/1999/02/22-rdf-syntax-ns#"
   xmlns:cc="http://creativecommons.org/ns#"
   xmlns:dc="http://purl.org/dc/elements/1.1/">
  <defs
     id="defs2" />
  <sodipodi:namedview
     id="namedview2"
     pagecolor="#ffffff"
     bordercolor="#111111"
     borderopacity="1"
     inkscape:showpageshadow="0"
     inkscape:pageopacity="0"
     inkscape:pagecheckerboard="1"
     inkscape:deskcolor="#d1d1d1"
     showgrid="false"
     inkscape:zoom="6.6640625"
     inkscape:cx="53.645955"
     inkscape:cy="64"
     inkscape:window-width="1860"
     inkscape:window-height="1053"
     inkscape:window-x="1980"
     inkscape:window-y="27"
     inkscape:window-maximized="1"
     inkscape:current-layer="svg2" />
  <title
     id="title1">svelte-logo</title>
  <path
     d="m 104.65655,22.818889 c -10.4,-14.8851001 -30.94,-19.2971001 -45.7914,-9.8348 l -26.0827,16.6237 a 29.9234,29.9234 0 0 0 -13.5186,20.0428 31.5136,31.5136 0 0 0 3.1076,20.2318 30.0061,30.0061 0 0 0 -4.4762,11.1829 31.8886,31.8886 0 0 0 5.4473,24.115701 c 10.4022,14.8865 30.9423,19.2966 45.7914,9.8348 l 26.0827,-16.623701 a 29.9177,29.9177 0 0 0 13.5186,-20.0428 31.5263,31.5263 0 0 0 -3.1053,-20.2323 30,30 0 0 0 4.4743,-11.1824 31.88,31.88 0 0 0 -5.4473,-24.1157"
     style="fill:#ff3e00"
     id="path1" />
  <path
     d="M 56.3171,106.58146 A 20.7182,20.7182 0 0 1 34.08,98.338856 a 19.1739,19.1739 0 0 1 -3.2766,-14.5025 18.1886,18.1886 0 0 1 0.6233,-2.4357 l 0.4912,-1.4978 1.3363,0.9815 a 33.6443,33.6443 0 0 0 10.203,5.0978 l 0.9694,0.2941 -0.0893,0.9675 a 5.8474,5.8474 0 0 0 1.052,3.8781 6.2389,6.2389 0 0 0 6.6952,2.485 5.7449,5.7449 0 0 0 1.6021,-0.7041 L 79.77,76.280956 a 5.4306,5.4306 0 0 0 2.4506,-3.631 5.7948,5.7948 0 0 0 -0.9875,-4.3712 6.2436,6.2436 0 0 0 -6.6978,-2.4864 5.7427,5.7427 0 0 0 -1.6,0.7036 l -9.9532,6.3449 a 19.0329,19.0329 0 0 1 -5.2965,2.3259 20.7181,20.7181 0 0 1 -22.2368,-8.2427 19.1725,19.1725 0 0 1 -3.2766,-14.5024 17.9885,17.9885 0 0 1 8.13,-12.0513 l 26.0811,-16.6232 a 19.0038,19.0038 0 0 1 5.3,-2.3287 20.7182,20.7182 0 0 1 22.2367,8.2426 19.1739,19.1739 0 0 1 3.2766,14.5025 18.4,18.4 0 0 1 -0.6233,2.4357 l -0.4912,1.4978 -1.3356,-0.98 a 33.6175,33.6175 0 0 0 -10.2037,-5.1 l -0.9694,-0.2942 0.0893,-0.9675 a 5.8588,5.8588 0 0 0 -1.052,-3.878 6.2389,6.2389 0 0 0 -6.6952,-2.485 5.7449,5.7449 0 0 0 -1.6021,0.7041 L 48.23,51.718956 a 5.4218,5.4218 0 0 0 -2.4487,3.63 5.7862,5.7862 0 0 0 0.9856,4.3717 6.2437,6.2437 0 0 0 6.6978,2.4864 5.7652,5.7652 0 0 0 1.602,-0.7041 l 9.9519,-6.3425 a 18.978,18.978 0 0 1 5.2959,-2.3278 20.7181,20.7181 0 0 1 22.2368,8.2427 19.1725,19.1725 0 0 1 3.2766,14.5024 17.9977,17.9977 0 0 1 -8.13,12.0532 L 61.6167,104.25276 a 19.0038,19.0038 0 0 1 -5.3,2.3287"
     style="fill:#ffffff"
     id="path2" />
  <metadata
     id="metadata2">
    <rdf:RDF>
      <cc:Work
         rdf:about="">
        <dc:title>svelte-logo</dc:title>
      </cc:Work>
    </rdf:RDF>
  </metadata>
</svg>
